<svg xmlns="http://www.w3.org/2000/svg" xmlns:xlink="http://www.w3.org/1999/xlink" width="1080" zoomAndPan="magnify" viewBox="0 0 810 809.999993" height="1080" preserveAspectRatio="xMidYMid meet" version="1.0"><defs><g/><clipPath id="fc77307c34"><path d="M 599 98 L 729 98 L 729 210 L 599 210 Z M 599 98 " clip-rule="nonzero"/></clipPath><clipPath id="1d4e68badd"><path d="M 610.238281 81 L 729.234375 101.507812 L 708.726562 220.503906 L 589.730469 199.996094 Z M 610.238281 81 " clip-rule="nonzero"/></clipPath><clipPath id="6eceaffb92"><path d="M 610.238281 81 L 729.234375 101.507812 L 708.726562 220.503906 L 589.730469 199.996094 Z M 610.238281 81 " clip-rule="nonzero"/></clipPath></defs><rect x="-81" width="972" fill="#ffffff" y="-80.999999" height="971.999992" fill-opacity="1"/><rect x="-81" width="972" fill="#14073d" y="-80.999999" height="971.999992" fill-opacity="1"/><g clip-path="url(#fc77307c34)"><g clip-path="url(#1d4e68badd)"><g clip-path="url(#6eceaffb92)"><path fill="#dbdbdb" d="M 715.6875 99.171875 C 695.949219 95.773438 667.132812 104.75 645.335938 124.964844 L 630.589844 122.425781 C 619.9375 120.589844 612.460938 127.488281 606.808594 135.171875 L 599.238281 145.457031 L 625.832031 150.042969 L 648.691406 182.417969 L 644.105469 209.011719 L 656.332031 205.324219 C 665.46875 202.566406 674.472656 197.832031 676.308594 187.175781 L 678.847656 172.433594 C 705.195312 158.660156 723.300781 134.507812 726.699219 114.769531 L 728.992188 101.464844 Z M 687.410156 122.738281 C 692.496094 123.613281 695.90625 128.445312 695.03125 133.53125 C 694.15625 138.613281 689.324219 142.023438 684.238281 141.148438 C 679.15625 140.273438 675.742188 135.441406 676.621094 130.355469 C 677.496094 125.273438 682.328125 121.859375 687.410156 122.738281 Z M 618.054688 167.660156 L 612.660156 171.46875 C 604.867188 176.972656 599.488281 192.898438 599.488281 192.898438 C 599.488281 192.898438 615.433594 193.769531 624.089844 187.65625 L 629.484375 183.847656 Z M 618.054688 167.660156 " fill-opacity="1" fill-rule="nonzero"/></g></g></g><g fill="#dbdbdb" fill-opacity="1"><g transform="translate(186.486732, 553.874985)"><g><path d="M 200.996094 -339.996094 L 133 -339.996094 L 133 -203.996094 L 88 -203.996094 L 88 -339.996094 L 20 -339.996094 L 20 0 L 88 0 L 88 -136 L 133 -136 L 133 0 L 200.996094 0 Z M 200.996094 -339.996094 "/></g></g></g><g fill="#dbdbdb" fill-opacity="1"><g transform="translate(407.484106, 553.874985)"><g><path d="M 200.996094 -67.5 L 200.996094 -125.5 C 200.996094 -136 197.996094 -145.5 192.5 -153 C 187 -160.5 179 -166.5 169.5 -170 C 180 -173 188 -178.5 193.5 -186.5 C 198.496094 -194 200.996094 -203.496094 200.996094 -213.996094 L 200.996094 -271.996094 C 200.996094 -281.496094 199.496094 -289.996094 195.996094 -298.496094 C 192.5 -306.996094 187.5 -313.996094 181.5 -320.496094 C 175 -326.496094 168 -331.496094 159.5 -334.996094 C 151 -338.496094 142.5 -339.996094 133 -339.996094 L 40.5 -339.996094 C 29 -339.996094 20 -330.996094 20 -319.496094 L 20 -20.5 C 20 -9 29 0 40.5 0 L 133 0 C 142.5 0 151 -2 159.5 -5.5 C 168 -9 175 -13.5 181.5 -20 C 187.5 -26 192.5 -33 195.996094 -41.5 C 199.496094 -49.5 200.996094 -58 200.996094 -67.5 Z M 88 -67.5 L 88 -135.5 L 133 -135.5 L 133 -67.5 Z M 88 -203.996094 L 88 -271.996094 L 133 -271.996094 L 133 -203.996094 Z M 88 -203.996094 "/></g></g></g></svg>